<svg xmlns="http://www.w3.org/2000/svg" viewBox="0 0 500 500"><path style="fill:#f5f5f5" d="M482.22 370.24V156.27l-35.04-20.24-26.29 15.18v52.5l-13.15-7.59v-20.24l-13.14-7.59V91.28l-39.44-22.77-17.52 10.12v23.64l-17.53-10.12-17.53 10.12v43.85l-17.52 10.09v-42.05l-17.53-10.12-21.91 12.65v50.59l-21.9-12.64V73.69l-26.29-15.18-30.68 17.71v65.67l-13.14 7.59v26.59l-17.53 10.12V95.23l-21.9-12.65-26.29 15.18v21.6l-13.15 7.59v58.36l-17.52 10.12v-39.49l-26.29-15.18-13.15 7.59v221.89h464.44z"/><path d="M77.66 238.29c-95.18 55-95.17 144 0 199s249.49 54.95 344.67 0 95.17-144 0-199-249.49-54.95-344.67 0Z" style="fill:#fafafa"/><path d="m389.59 51 3.73 1.43v-8.26c0-6.51 5.19-8.07 10.83-4.82 5.63 3.26 10.2 11.17 10.2 17.68v1.19a5.46 5.46 0 0 1 4.74.74 16.2 16.2 0 0 1 7.34 12.72v.54l5.2 3a10.69 10.69 0 0 1 4.84 8.38c0 3.08-2.17 4.33-4.84 2.79l-42-24.27a10.72 10.72 0 0 1-4.84-8.38c-.04-3.09 2.13-4.34 4.8-2.74ZM49.22 81.32l4.51-3.48V67.9c0-7.88 6.29-17 13.12-21 6.82-3.94 12.36-.74 12.36 7.14v1.46a17.7 17.7 0 0 1 5.73-5.73c4.92-2.84 8.9-.54 8.9 5.13v.66l6.29-3.64c3.23-1.86 5.86-.35 5.86 3.38a13 13 0 0 1-5.86 10.15L49.22 94.84c-3.23 1.87-5.86.36-5.86-3.38a13 13 0 0 1 5.86-10.14ZM473.75 81.22l-6.75-3.9a5.49 5.49 0 0 0 .06-.83v-2a12.09 12.09 0 0 0-5.46-9.46 4.24 4.24 0 0 0-3.26-.63c-.49-4.95-3.93-10.55-8.1-13-4.52-2.61-8.18-.49-8.18 4.72v2.93a14.29 14.29 0 0 0 .69 4.19L437.14 60c-1.67-1-3-.18-3 1.75a6.72 6.72 0 0 0 3 5.25l36.62 21.14c1.67 1 3 .18 3-1.75a6.72 6.72 0 0 0-3.01-5.17Z" style="fill:#f5f5f5"/><path d="m379.8 270 78.12 45.2c12.5 7.19 11 19.72-3.33 28L296.75 446.07c-71.75 41.51-191.42-44.71-134.09-76.85l175-101.35c14.34-8.27 29.63-5.07 42.14 2.13Z" style="fill:#e0e0e0"/><path d="M42.25 156.16 276.34 20.89c.75-.44 1.37-.08 1.37.79v203.89a3.05 3.05 0 0 1-1.37 2.38L42.25 363.22c-.76.43-1.37.08-1.37-.8V158.53a3 3 0 0 1 1.37-2.37Z" style="opacity:.2"/><path d="M275.93 26 47.55 158a3.33 3.33 0 0 0-1.55 2.57v201.24a3.29 3.29 0 0 0 1.52 2.6l2.88 1.64a3.4 3.4 0 0 0 3 0l228.38-132a3.31 3.31 0 0 0 1.51-2.61V30.22a3.28 3.28 0 0 0-1.52-2.6L279 26a3.37 3.37 0 0 0-3.07 0Z" style="fill:#f50057"/><path d="M53.47 366a3.49 3.49 0 0 1-3 0l-2.87-1.64a3.29 3.29 0 0 1-1.52-2.6V160.57a3 3 0 0 1 .48-1.54l5.88 3.4a3 3 0 0 0-.44 1.49v201.23c0 .85.58 1.4 1.47.85Z" style="opacity:.2"/><g style="opacity:.2"><path d="M283.34 29.94c-.12-.76-.74-1-1.49-.6L53.47 161.3a3.24 3.24 0 0 0-1.07 1.13L46.51 159a3 3 0 0 1 1-1.08L275.94 26a3.4 3.4 0 0 1 3 0l2.87 1.63a3.33 3.33 0 0 1 1.53 2.31Z" style="fill:#fff"/></g><path d="M281.85 29.35 53.47 161.3a3.33 3.33 0 0 0-1.47 2.62v201.24c0 1 .67 1.35 1.51.87l228.38-132a3.31 3.31 0 0 0 1.51-2.61V30.22c-.04-.97-.71-1.36-1.55-.87Z" style="fill:#fff"/><path d="M282.15 30.57v200.89a2.2 2.2 0 0 1-.9 1.57L53.17 364.81V163.92a2.18 2.18 0 0 1 .9-1.57L282.15 30.57m.38-1.43a1.37 1.37 0 0 0-.68.21L53.47 161.3a3.33 3.33 0 0 0-1.47 2.62v201.24c0 .68.34 1.08.83 1.08a1.37 1.37 0 0 0 .68-.21l228.38-132a3.31 3.31 0 0 0 1.51-2.61V30.22c0-.69-.34-1.08-.83-1.08Z" style="fill:#f50057"/><path d="M258 154.84c-.79 7.57-2.57 23.81-4.35 33.88q-85.4 53.49-172 99.33c-1.79-8-3.57-22.19-4.36-28.85a5.22 5.22 0 0 1 .29-2.21c0-.1.07-.19.1-.28a4.88 4.88 0 0 1 2.11-2.57c6.07-3 21.13-10.5 39.76-20.31a1 1 0 0 1 1.54.41 1 1 0 0 0 1.54.41c31.06-16 60.12-32.74 90.83-52.44A4.27 4.27 0 0 0 215 180a4.08 4.08 0 0 1 1.55-2.21c18.27-11.5 33-21.17 39-25.13a1.44 1.44 0 0 1 2.09.13c0 .06.07.12.11.17a3.06 3.06 0 0 1 .25 1.88Z" style="fill:#f50057"/><path d="m148 172.71-13.69 55.86v7.24c8.08-4.39 15.67-8.57 22.37-12.38v-7.05l4.86-51.66ZM187.35 150l-13.54 7.65 4.86 46v7.06c6.71-3.94 14.29-8.52 22.38-13.47V190Z" style="fill:#e6e6e6"/><path d="M254.85 158.77c-.66 6.3-1.56 14.69-2.94 23.37q-84.25 52.94-168.6 97.34c-1.37-7.1-2.2-14.48-2.85-20a2.56 2.56 0 0 1 1.15-2.33c6.59-3.27 19-9.51 34.2-17.45 1.24-.65 2.22.15 2.22 1.8 0 1.66 1 2.46 2.23 1.8q47.53-25 94.8-54.73a5.62 5.62 0 0 0 2.22-4.37 5.63 5.63 0 0 1 2.23-4.37c15.15-9.56 27.58-17.69 34.19-22 .7-.53 1.3-.04 1.15.94Z" style="fill:#37474f"/><path d="m258.4 190.16-1.19 9.84a7.91 7.91 0 0 1-3.14 5.43c-9.4 5.83-42.79 26.39-86.41 51.58s-77 43.18-86.42 48.2c-1.56.84-2.86.07-3.14-1.81l-1.18-8.45a6.68 6.68 0 0 1 .27-2.79q90.63-47.46 180.94-104.46a4.68 4.68 0 0 1 .27 2.46Z" style="fill:#e0e0e0"/><path d="M258.13 187.69q-90.33 57-180.94 104.46a9.23 9.23 0 0 1 .61-1.55l1.71-3.29a6.31 6.31 0 0 1 2.49-2.72c7.56-4.06 44-23.69 85.71-47.77s78.15-46.52 85.7-51.2a2.06 2.06 0 0 1 2.45-.1l1.7 1.33a2.28 2.28 0 0 1 .57.84Z" style="fill:#f5f5f5"/><path d="m188.13 242.62.24-4.54a21 21 0 0 0 .09-2.19c-.08-.57-.52-.78-1-.5-11 6.67-22.12 13.17-33.06 19.27l-6.61 3.63a2.66 2.66 0 0 0-.95 2.65c.12 1.75.23 3.55.32 5.32-.23-1.67-.43-3.4-.63-5.09a6.21 6.21 0 0 1-.07-1.12 3.42 3.42 0 0 1 1.32-2.38l6.62-4a958.823 958.823 0 0 1 33.08-18.91c.67-.35 1.24.05 1.31.86a21.22 21.22 0 0 1-.19 2.36l-.5 4.65Z" style="opacity:.2"/><path d="m248.17 181.47-28.26 17.32c-.38.23-.69 0-.69-.5l.69-14.92a1.63 1.63 0 0 1 .63-1.26l29.12-18.56c.42-.26.75 0 .69.61l-1.53 16.17a1.61 1.61 0 0 1-.65 1.14Z" style="fill:#e0e0e0"/><path d="m243.07 182.84-16.84 10.47c2.68-1.55 4.85-5.71 4.85-9.29s-2.17-5.23-4.85-3.67l16.84-10.7c-2.73 1.57-4.94 5.81-4.94 9.46s2.21 5.31 4.94 3.73Z" style="opacity:.2"/><path d="M248 173.39c0 3.65-2.22 7.87-5 9.45s-4.94-.09-4.94-3.73 2.21-7.89 4.94-9.46 5 .09 5 3.74Z" style="fill:#fff"/><ellipse cx="243.93" cy="176.85" rx="3.64" ry="2.06" transform="rotate(-66.95 243.927 176.85)" style="fill:#ebebeb"/><path d="M242.62 173.29a2.57 2.57 0 0 1-1.06 2c-.59.34-1.06 0-1.06-.8a2.54 2.54 0 0 1 1.06-2c.58-.34 1.06.02 1.06.8Z" style="fill:#ebebeb"/><path d="M231.08 184c0 3.58-2.17 7.74-4.85 9.29s-4.86-.1-4.86-3.68 2.17-7.73 4.86-9.28 4.85.12 4.85 3.67Z" style="fill:#fff"/><path d="M229.45 186.49a5.69 5.69 0 0 1-2.37 4.54c-1.31.76-2.38-.05-2.38-1.8a5.68 5.68 0 0 1 2.38-4.53c1.31-.76 2.37.04 2.37 1.79ZM225.76 184.31a2.52 2.52 0 0 1-1.06 2c-.58.34-1.06 0-1.06-.8a2.57 2.57 0 0 1 1.06-2c.59-.34 1.06.01 1.06.8Z" style="fill:#ebebeb"/><path d="m87.14 274.44 28.27-15.32a1.58 1.58 0 0 0 .68-1.28l-.68-14.14c0-.47-.28-.7-.64-.52l-29.12 15.06a1.6 1.6 0 0 0-.69 1.4L86.5 274c.04.45.31.62.64.44Z" style="fill:#e0e0e0"/><path d="m92.24 269.93 16.85-9c-2.69 1.55-4.86-.1-4.86-3.68s2.17-7.73 4.86-9.28l-16.85 8.75c2.73-1.58 4.94.1 4.94 3.75s-2.18 7.88-4.94 9.46Z" style="opacity:.2"/><path d="M87.29 266.2c0 3.64 2.21 5.31 4.95 3.73s4.94-5.8 4.94-9.45-2.21-5.33-4.94-3.75-4.95 5.82-4.95 9.47Z" style="fill:#fff"/><path d="M89 266.29c0 1.75 1.06 2.56 2.37 1.8a5.68 5.68 0 0 0 2.38-4.54c0-1.75-1.06-2.55-2.38-1.79a5.68 5.68 0 0 0-2.37 4.53ZM92.7 259.85c0 .78.47 1.14 1.06.8a2.57 2.57 0 0 0 1.06-2c0-.78-.48-1.14-1.06-.8a2.54 2.54 0 0 0-1.06 2Z" style="fill:#ebebeb"/><path d="M104.23 257.26c0 3.58 2.17 5.23 4.86 3.68s4.85-5.71 4.85-9.29-2.17-5.22-4.85-3.67-4.86 5.71-4.86 9.28Z" style="fill:#fff"/><path d="M105.86 257.85c0 1.75 1.07 2.55 2.38 1.79a5.69 5.69 0 0 0 2.37-4.53c0-1.75-1.06-2.56-2.37-1.8a5.7 5.7 0 0 0-2.38 4.54ZM109.55 251.4c0 .78.48 1.14 1.06.8a2.52 2.52 0 0 0 1.06-2c0-.78-.47-1.14-1.06-.8a2.53 2.53 0 0 0-1.06 2Z" style="fill:#ebebeb"/><path d="M168.63 224a4.27 4.27 0 0 1 1.77-3.38c15-8.69 45-28.11 45-28.5 0-.2-23.86 14.31-47.72 28.08s-47.72 26.76-47.72 27c0 .52 30.08-14.9 45-23.45 1-.56 1.76 0 1.76 1.35v1.9c-15.45 8.89-46.74 25.46-46.74 26.05s29.74-14.69 44.47-23.15c1.26-.72 2.27 0 2.27 1.73v1.83l1.95-1.13v-1.83a5.46 5.46 0 0 1 2.28-4.35c14.8-8.6 44.47-27.77 44.47-28.19s-31.21 18.93-46.75 27.91Z" style="fill:#e0e0e0"/><path d="M257.63 152.79a1.44 1.44 0 0 0-2.09-.13c-6 4-20.73 13.63-39 25.13A4.08 4.08 0 0 0 215 180a4.27 4.27 0 0 1-1.54 2.2c-30.71 19.7-59.77 36.45-90.83 52.44a1 1 0 0 1-1.54-.41 1 1 0 0 0-1.54-.41c-18.63 9.81-33.69 17.31-39.76 20.31a4.88 4.88 0 0 0-2.11 2.57c7.56-21.05 30.32-59.54 30.32-59.54s27.34-17.35 59.66-36 59.65-32.87 59.65-32.87 22.75 12.18 30.32 24.5Z" style="fill:#f50057"/><path d="M257.63 152.79a1.44 1.44 0 0 0-2.09-.13c-6 4-20.73 13.63-39 25.13A4.08 4.08 0 0 0 215 180a4.27 4.27 0 0 1-1.54 2.2c-30.71 19.7-59.77 36.45-90.83 52.44a1 1 0 0 1-1.54-.41 1 1 0 0 0-1.54-.41c-18.63 9.81-33.69 17.31-39.76 20.31a4.88 4.88 0 0 0-2.11 2.57c7.56-21.05 30.32-59.54 30.32-59.54s27.34-17.35 59.66-36 59.65-32.87 59.65-32.87 22.75 12.18 30.32 24.5Z" style="fill:#fff;opacity:.15"/><path d="M216 178.2a4.53 4.53 0 0 0-1 1.79 5 5 0 0 1-.84 1.56c-1-4.54-5.08-13.21-8.64-25 4.32 8.97 10.48 21.65 10.48 21.65ZM120 233.62a.94.94 0 0 1 1 .58 1 1 0 0 0 .84.59c.94-5.63 5.08-19.07 8.64-35-4.26 14-10.48 33.83-10.48 33.83Z" style="opacity:.2"/><path d="M227.31 128.28S200 142.5 167.66 161.15s-59.66 36-59.66 36l11.31-39.28a13.29 13.29 0 0 1 4.55-7c27.25-19.48 60.34-38.59 87.59-50.57a3.17 3.17 0 0 1 4.55 1.74Z" style="fill:#263238"/><path d="M167.66 161.15C193 146.53 216.35 134 224 130l-10.68-24.77a1.55 1.55 0 0 0-2.2-.85 484.17 484.17 0 0 0-43.49 22.32c-13.47 7.78-30 18.28-43.5 27.91A6.51 6.51 0 0 0 122 158l-10.67 37.1c7.67-4.89 31.03-19.35 56.33-33.95Z" style="fill:#37474f"/><path d="M236.68 216.1c-2.22 5.51-5.87 10.42-10 13q-59 36.09-118 68.11c-4.16 2.25-7.81 1.55-10-1.4 15.92-8.7 40.24-22.18 69-38.79s53.08-31.24 69-40.92Z" style="fill:#455a64"/><path d="M250.35 207.72v10.08c0 4.83-2.93 10.43-6.55 12.52l-21.22 12.26c-3.61 2.08-6.55-.13-6.55-5v-2.07l10.62-6.47c4.16-2.56 7.81-7.47 10-13 5.72-3.41 10.35-6.25 13.7-8.32ZM85 303.21v10.09c0 4.82 2.93 7 6.55 4.95L112.73 306c3.61-2.08 6.55-7.68 6.55-12.51v-2.09q-5.3 2.91-10.62 5.8c-4.16 2.24-7.81 1.55-10-1.4-5.72 3.1-10.35 5.61-13.66 7.41Z" style="fill:#263238"/><path d="M178.67 203.66q11.13-6.6 22.38-13.62l-13.7-40-12.84 7.26-.7.39ZM160.81 165.13 148 172.71l-13.69 55.86q11.29-6 22.37-12.2l4.86-51.65Z" style="fill:#fafafa"/><path d="M222.48 129.5c-2.46 1.29-7.16 3.79-13.88 7.44-9.82-8.07-22.79-11.76-37.75-10.78 13.66-7.75 28.46-15.28 40.2-20.45a1 1 0 0 1 1.42.55Z" style="fill:#455a64"/><path d="m434.13 322.89-21.7-12.42 15.39-8.89 7.44 4.3-1.13 17.01zM297.58 406.86l-29.77-17.19v-17.19l29.77 17.19v17.19z"/><path d="m283.55 399.65 4.81-9.56-11.45-6.62c-3.64-2.09-8.48-1.85-13.81 1.22-11.3 6.52-20.46 23.36-20.47 37.6 0 7.45 2.52 12.71 6.54 15.1l.17.09 11.73 6.78 5.07-10.08c9.62-7.33 17.04-21.83 17.41-34.53Z" style="fill:#37474f"/><path d="m283.55 399.65 4.81-9.56-11.45-6.62c-3.64-2.09-8.48-1.85-13.81 1.22-11.3 6.52-20.46 23.36-20.47 37.6 0 7.45 2.52 12.71 6.54 15.1l.17.09 11.73 6.78 5.07-10.08c9.62-7.33 17.04-21.83 17.41-34.53Z" style="fill:#263238"/><path d="M295.48 405.53c0 12.27-6.82 26.48-15.94 34.34a29.47 29.47 0 0 1-4.49 3.21c-11.3 6.54-20.47.28-20.46-14 0-10.75 5.23-23 12.66-31.16a.33.33 0 0 0 .06-.06 33.13 33.13 0 0 1 7.74-6.38c11.27-6.48 20.43-.19 20.43 14.05Z" style="fill:#37474f"/><path d="M275 400.16c7.2-4.16 13 .17 13 9.66s-5.83 20.56-13 24.71-13-.17-13-9.66 5.82-20.56 13-24.71Z" style="fill:#455a64"/><path d="M280.9 414.72c-.5 4.72-3.54 9.72-6.78 11.17a3.17 3.17 0 0 1-3.55-.3c-1.14-1-1.72-3-1.44-5.62.49-4.72 3.52-9.73 6.78-11.17a3.64 3.64 0 0 1 2.38-.32c1.88.52 2.97 2.8 2.61 6.24Z" style="fill:#fafafa"/><path d="M279.74 414.11c-.5 4.72-3.54 9.72-6.79 11.17a3.62 3.62 0 0 1-2.38.31c-1.14-1-1.72-3-1.44-5.62.49-4.72 3.52-9.73 6.78-11.17a3.64 3.64 0 0 1 2.38-.32c1.14.99 1.71 2.99 1.45 5.63Z" style="fill:#e0e0e0"/><path d="M295.48 405.53c0 12.27-6.82 26.48-15.94 34.34a58.09 58.09 0 0 0 13-25.12c1.73-8.21 1.08-20-6-23s-16.35 3.3-19.29 6.16a33.13 33.13 0 0 1 7.74-6.38c11.33-6.53 20.49-.24 20.49 14Z" style="fill:#455a64"/><path d="m422 315 4.3-8.55-10.24-5.92c-3.25-1.87-7.59-1.66-12.35 1.09-10.1 5.83-18.3 20.89-18.3 33.62 0 6.67 2.25 11.37 5.84 13.51l.14.09 10.5 6.06 4.53-9c8.58-6.55 15.24-19.52 15.58-30.9Z" style="fill:#37474f"/><path d="m422 315 4.3-8.55-10.24-5.92c-3.25-1.87-7.59-1.66-12.35 1.09-10.1 5.83-18.3 20.89-18.3 33.62 0 6.67 2.25 11.37 5.84 13.51l.14.09 10.5 6.06 4.53-9c8.58-6.55 15.24-19.52 15.58-30.9Z" style="fill:#263238"/><path d="M432.66 320.28c0 11-6.1 23.69-14.26 30.72a27.35 27.35 0 0 1-4 2.88c-10.11 5.84-18.31.24-18.3-12.49 0-9.62 4.68-20.57 11.32-27.86l.06-.06a29.19 29.19 0 0 1 6.92-5.7c10.06-5.77 18.26-.22 18.26 12.51Z" style="fill:#37474f"/><path d="M414.35 315.48c6.44-3.71 11.65.16 11.65 8.65s-5.21 18.38-11.65 22.09-11.64-.15-11.64-8.64 5.21-18.39 11.64-22.1Z" style="fill:#455a64"/><path d="M419.62 328.5c-.45 4.22-3.16 8.7-6.07 10a2.83 2.83 0 0 1-3.17-.26c-1-.88-1.54-2.66-1.29-5 .44-4.22 3.15-8.7 6.06-10a3.2 3.2 0 0 1 2.13-.28c1.72.38 2.66 2.47 2.34 5.54Z" style="fill:#fafafa"/><path d="M418.58 328c-.44 4.22-3.16 8.69-6.07 10a3.37 3.37 0 0 1-2.13.28c-1-.88-1.54-2.66-1.29-5 .44-4.22 3.15-8.7 6.06-10a3.2 3.2 0 0 1 2.13-.28c1.02.81 1.55 2.59 1.3 5Z" style="fill:#e0e0e0"/><path d="M432.66 320.28c0 11-6.1 23.69-14.26 30.72a51.85 51.85 0 0 0 11.6-22.47c1.55-7.34 1-17.88-5.33-20.54s-14.62 2.95-17.25 5.51a29.19 29.19 0 0 1 6.92-5.7c10.12-5.8 18.32-.25 18.32 12.48Z" style="fill:#455a64"/><path d="m320 341.75-76.84 65.11v23.4L161.27 383l-6.05-17.44a6.34 6.34 0 0 1 .1-3.84c1.89-6 5.54-9.29 14-15.91 14-10.95 53.39-39.16 60.51-44.32 0 0 11.87 7.79 36.34 19.7S320 341.75 320 341.75Z" style="fill:#f50057"/><path d="m320 341.75-76.84 65.11v23.4L161.27 383l-6.05-17.44a6.34 6.34 0 0 1 .1-3.84c1.89-6 5.54-9.29 14-15.91 14-10.95 53.39-39.16 60.51-44.32 0 0 11.87 7.79 36.34 19.7S320 341.75 320 341.75Z" style="fill:#fff;opacity:.15"/><path d="m252.7 433.33-10.91 6.3a5.25 5.25 0 0 1-4.76 0c-29.8-14.24-55.76-29-77.1-44.52a5.22 5.22 0 0 1-2.38-4.12v-3.1a4.77 4.77 0 0 1 1.86-3.82l1.86-1.07a805.05 805.05 0 0 0 81.86 47.26l11.28-6.88Z" style="fill:#e0e0e0"/><path d="m252.7 433.33-10.91 6.3a5.25 5.25 0 0 1-4.76 0c-29.8-14.24-55.76-29-77.1-44.52a5.22 5.22 0 0 1-2.38-4.12v-3.1a4.77 4.77 0 0 1 1.86-3.82l1.86-1.07a805.05 805.05 0 0 0 81.86 47.26l11.28-6.88Z" style="opacity:.1"/><path d="M159.93 386.52A759.69 759.69 0 0 0 237 431a4.77 4.77 0 0 0 4.24.3l1.86-1.08A804.41 804.41 0 0 1 161.27 383l-1.86 1.07c-1.03.6-.8 1.69.52 2.45Z" style="fill:#f5f5f5"/><path d="M243.14 430.26A804.52 804.52 0 0 1 161.27 383l-6.05-17.44q10.4 7.2 21 13.88l.36.86s12.35 7.81 22.38 13.6 17.34 9.53 17.34 9.53l-.38-1.31c6.33 3.22 15.35 7.67 21.8 10.61Z" style="fill:#f50057"/><path d="M240.86 427.57a804 804 0 0 1-78.45-45.46l-4.52-13.05q8.72 5.94 17.57 11.51l1.2 2.83s12.93 8.19 23.44 14.26 20.9 11.42 20.9 11.42l-.93-3.28q8.24 4.15 16.51 7.93Z" style="fill:#263238"/><path d="m164 382 13.23 8.1c.18.1.24 0 .14-.33l-3.22-8.56a1.37 1.37 0 0 0-.47-.68l-13.78-8.77c-.19-.12-.25.07-.11.4l3.76 9.22a1.39 1.39 0 0 0 .45.62Z" style="fill:#e0e0e0"/><path d="m166.07 382.45 7.92 4.91a10.59 10.59 0 0 1-3.53-5c-.72-2.06-.29-3.16.94-2.44l-8-5.05c1.26.73 2.87 3 3.6 5.12s.34 3.19-.93 2.46Z" style="opacity:.2"/><path d="M162.47 377.33c.73 2.1 2.34 4.39 3.6 5.12s1.7-.38 1-2.49-2.34-4.39-3.6-5.12-1.72.38-1 2.49Z" style="fill:#fff"/><path d="M163.49 378.42a5.18 5.18 0 0 0 1.72 2.45c.61.35.82-.18.47-1.19a5.22 5.22 0 0 0-1.73-2.46c-.61-.35-.81.19-.46 1.2ZM164.33 376.91a2.3 2.3 0 0 0 .77 1.1c.27.15.36-.08.2-.54a2.22 2.22 0 0 0-.77-1.09c-.27-.16-.36.08-.2.53Z" style="fill:#ebebeb"/><path d="M170.46 382.33a10.59 10.59 0 0 0 3.53 5c1.24.72 1.66-.38.95-2.45s-2.3-4.31-3.54-5-1.66.39-.94 2.45Z" style="fill:#fff"/><path d="M171.52 383.64a5.21 5.21 0 0 0 1.72 2.46c.61.35.82-.18.47-1.19a5.22 5.22 0 0 0-1.73-2.46c-.61-.35-.81.19-.46 1.19ZM172.36 382.14a2.22 2.22 0 0 0 .77 1.09c.27.16.36-.08.2-.53a2.3 2.3 0 0 0-.77-1.1c-.27-.15-.36.09-.2.54Z" style="fill:#ebebeb"/><path d="m238.31 424.88-12.84-7a1.4 1.4 0 0 1-.49-.69l-2.59-8.19c-.09-.28 0-.43.12-.35l13.08 6.75a1.38 1.38 0 0 1 .52.76l2.34 8.41c.07.27.01.43-.14.31Z" style="fill:#e0e0e0"/><path d="m235.65 422.61-7.65-4.06c1.24.72 1.66-.38.95-2.44s-2.3-4.32-3.54-5L233 415c-1.26-.72-1.69.39-1 2.5s2.38 4.39 3.65 5.11Z" style="opacity:.2"/><path d="M236.61 420.13c.73 2.1.3 3.21-1 2.48s-2.87-3-3.6-5.11-.3-3.22 1-2.5 2.88 3 3.6 5.13Z" style="fill:#fff"/><path d="M236 420.3c.35 1 .14 1.55-.46 1.2a5.15 5.15 0 0 1-1.73-2.46c-.35-1-.14-1.54.46-1.19a5.17 5.17 0 0 1 1.73 2.45ZM233.47 416.83c.16.45.07.69-.2.54a2.3 2.3 0 0 1-.77-1.1c-.16-.45-.07-.69.2-.53a2.22 2.22 0 0 1 .77 1.09Z" style="fill:#ebebeb"/><path d="M229 416.11c.71 2.06.29 3.16-.95 2.44s-2.82-3-3.53-5-.29-3.16.94-2.44 2.79 2.94 3.54 5Z" style="fill:#fff"/><path d="M228.52 416.56c.35 1 .14 1.54-.46 1.19a5.15 5.15 0 0 1-1.73-2.46c-.35-1-.14-1.54.46-1.19a5.15 5.15 0 0 1 1.73 2.46ZM226 413.08c.15.45.06.69-.21.54a2.37 2.37 0 0 1-.77-1.1c-.16-.45-.06-.69.21-.53a2.28 2.28 0 0 1 .77 1.09Z" style="fill:#ebebeb"/><path d="M195.71 399.91c-7.17-4.15-17.12-10.82-17-10.58A176.86 176.86 0 0 0 195 400.22a5 5 0 0 1 1.66 2.36l.36 1.05.9.52-.36-1c-.34-1-.14-1.48.44-1.15 6.78 3.9 24.84 13.14 24.72 12.79s-19-10.21-26.09-14.31l-.38-1.1c-.26-.76-.11-1.15.34-.9 6.86 3.94 25.06 13.24 25 12.93-.05-.15-15.62-8.47-26.62-14.81s-17.45-10.72-17.41-10.61A188.51 188.51 0 0 0 194 397a3.82 3.82 0 0 1 1.29 1.83Z" style="fill:#e0e0e0"/><path d="M466.64 290.65c-.78 2.33-1.51 4.26-2 5.41-2.15 5-4.54 7.77-9.14 11s-20 14.94-20 14.94l-1.41.86-2.05-7.9-1.47-5.67c-.74-2.84-3-3.68-5.58-2.1l-20.84 12.6c-2.66 1.61-5.16 5.34-6.23 9.33l-5.17 19.16-95.2 58.54v-.06l-2.42-8.27-1.64-5.59c-.93-3.14-3.61-4-6.73-2.1L264 404.61c-3.19 1.93-6.14 6.21-7.39 10.72l-2.22 8.05-11.28 6.88c-1.51-4.93-3.5-11.38-5.4-17.52a6.43 6.43 0 0 1 .4-4.05c2.51-6.42 6.77-10.28 16.47-18 15.76-12.46 58-43.51 65.38-49 0 0 10.67-26.17 15.35-38.84s5.44-11.33 13-14.64 52.39-20.27 63.23-18.49 19.08 11.06 26.41 8.56 25.78-8.15 31-8.75c4.05-.41.51 12.81-2.31 21.12Z" style="fill:#f50057"/><path d="M215.93 400.82c4.72-11.85 31.13-31.12 42.15-38.95 2.27-1.55 4.53-3.13 6.82-4.65-10.92 8.35-21.92 16.6-32.34 25.56a153.83 153.83 0 0 0-11.9 11.36c-1.76 2.07-3.73 4.11-4.73 6.68ZM177.46 378.7c2.26-10.08 9.29-18.17 16.15-25.54 7.06-7.33 14.47-14.28 22-21.05-1.76 1.83-3.57 3.62-5.34 5.43-5.21 5.25-11 10.9-16 16.25-6.91 7.29-13.85 15.11-16.81 24.91Z" style="opacity:.1"/><path d="M229.85 301.49s11.87 7.79 36.34 19.7S320 341.75 320 341.75" style="fill:#f50057"/><path d="m338.53 294.65-1.42 3.68-1.55 4c-.08.18-.15.38-.22.58l-15 37.95c-.23.58-.36.89-.36.89s-34.8-7.9-59.27-19.81-30.85-20.45-30.85-20.45L252 259.4s12.53 12.47 41.06 23.2 45.47 12.05 45.47 12.05Z" style="fill:#263238"/><path d="M314.27 337.28c-10.64-2.68-34.56-9.19-51.81-17.58-13.49-6.56-21.79-12.05-26.14-15.42a5.91 5.91 0 0 1-1.33-7.06l15.57-29.6c1.18-2.24 3.57-2.58 5.6-1.07 15.12 11.23 56.2 26.35 74.58 29.27 2.5.4 3.8 2.4 2.87 4.75l-13.21 33.54a5.38 5.38 0 0 1-6.13 3.17Z" style="fill:#37474f"/><path d="M332.32 298.23a2.44 2.44 0 0 0-1.79-1.05c-15.91-2.53-47.84-13.9-66.41-24.06a100.91 100.91 0 0 1 8.93 8.74c7.73 8.51 14.09 18.12 20.5 27.63A131.07 131.07 0 0 1 302.8 325a74.67 74.67 0 0 1 3.44 8.71c3.12.85 6 1.59 8.36 2.2a3.39 3.39 0 0 0 .84.1 4.07 4.07 0 0 0 3.68-2.44l13.22-33.54a2.15 2.15 0 0 0-.02-1.8Z" style="fill:#455a64"/><path d="M419.71 272.45a32.35 32.35 0 0 0-8.15-2.68c-10.83-1.76-55.72 15.2-63.23 18.5-6.49 2.85-8 2.28-11.22 10.06l1.42-3.68s-16.94-1.35-45.46-12.1-41.07-23.2-41.07-23.2c2.16-4.58 4.21-4.56 9.8-7 7.79-3.39 68.35-22.19 81.25-20.48a57.68 57.68 0 0 1 10.59 2.51Z" style="fill:#f50057"/><path d="M419.71 272.45a32.35 32.35 0 0 0-8.15-2.68c-10.83-1.76-55.72 15.2-63.23 18.5-6.49 2.85-8 2.28-11.22 10.06l1.42-3.68s-16.94-1.35-45.46-12.1-41.07-23.2-41.07-23.2c2.16-4.58 4.21-4.56 9.8-7 7.79-3.39 68.35-22.19 81.25-20.48a57.68 57.68 0 0 1 10.59 2.51Z" style="fill:#fff;opacity:.4"/><path d="M466.65 290.65c-.79 2.33-1.52 4.26-2 5.41-2.14 5-4.54 7.77-9.13 11-4.75 3.37-20 14.94-20 14.94l-1.41.87-2.03-7.87-1.47-5.67c-.74-2.84-3-3.68-5.58-2.11l-20.84 12.61c-2.66 1.61-5.16 5.34-6.24 9.33l-5.17 19.17-95.18 58.52v-.05l-2.42-8.26-1.64-5.6c-.93-3.14-3.61-4-6.73-2.1L264 404.61c-3.18 1.93-6.13 6.21-7.38 10.73l-2.22 8-11.27 6.88c-1.52-4.93-3.51-11.39-5.41-17.53a6.41 6.41 0 0 1 .4-4c2.51-6.42 6.77-10.28 16.47-18 15.76-12.47 58-43.5 65.37-49 0 0 .13-.31.36-.89 1.91-4.67 10.83-26.66 15-37.95.07-.2.14-.4.22-.58.57-1.53 1.07-2.84 1.55-4 3.25-7.78 4.73-7.21 11.22-10.06 7.51-3.3 52.4-20.26 63.23-18.5a32.35 32.35 0 0 1 8.15 2.68l1.23.59c6.45 3.16 12 7 17 5.3 7.29-2.48 25.79-8.14 31-8.75 4.08-.41.54 12.81-2.27 21.12Z" style="fill:#f50057"/><path d="M466.65 290.65c-.79 2.33-1.52 4.26-2 5.41-2.14 5-4.54 7.77-9.13 11-4.75 3.37-20 14.94-20 14.94l-1.41.87-2.03-7.87-1.47-5.67c-.74-2.84-3-3.68-5.58-2.11l-20.84 12.61c-2.66 1.61-5.16 5.34-6.24 9.33l-5.17 19.17-95.18 58.52v-.05l-2.42-8.26-1.64-5.6c-.93-3.14-3.61-4-6.73-2.1L264 404.61c-3.18 1.93-6.13 6.21-7.38 10.73l-2.22 8-11.27 6.88c-1.52-4.93-3.51-11.39-5.41-17.53a6.41 6.41 0 0 1 .4-4c2.51-6.42 6.77-10.28 16.47-18 15.76-12.47 58-43.5 65.37-49 0 0 .13-.31.36-.89 1.91-4.67 15.14-38.35 15.22-38.53.57-1.53 1.07-2.84 1.55-4 3.25-7.78 4.73-7.21 11.22-10.06 7.51-3.3 52.4-20.26 63.23-18.5a32.35 32.35 0 0 1 8.15 2.68l1.23.59c6.45 3.16 12 7 17 5.3 7.29-2.48 25.79-8.14 31-8.75 4.08-.41.54 12.81-2.27 21.12Z" style="fill:#f50057"/><path d="M466.65 290.65c-.79 2.33-1.52 4.26-2 5.41-2.14 5-4.54 7.77-9.13 11-4.75 3.37-20 14.94-20 14.94l-1.41.87-2.03-7.87-1.47-5.67c-.74-2.84-3-3.68-5.58-2.11l-20.84 12.61c-2.66 1.61-5.16 5.34-6.24 9.33l-5.17 19.17-95.18 58.52v-.05l-2.42-8.26-1.64-5.6c-.93-3.14-3.61-4-6.73-2.1L264 404.61c-3.18 1.93-6.13 6.21-7.38 10.73l-2.22 8-11.27 6.88c-1.52-4.93-3.51-11.39-5.41-17.53a6.41 6.41 0 0 1 .4-4c2.51-6.42 6.77-10.28 16.47-18 15.76-12.47 58-43.5 65.37-49 0 0 .13-.31.36-.89 1.91-4.67 15.14-38.35 15.22-38.53.57-1.53 1.07-2.84 1.55-4 3.25-7.78 4.73-7.21 11.22-10.06 7.51-3.3 52.4-20.26 63.23-18.5a32.35 32.35 0 0 1 8.15 2.68l1.23.59c6.45 3.16 12 7 17 5.3 7.29-2.48 25.79-8.14 31-8.75 4.08-.41.54 12.81-2.27 21.12Z" style="opacity:.05"/><path d="M469.66 269.67a1.45 1.45 0 0 0-.72-.08c-5.19.61-23.69 6.27-31 8.75-5 1.72-10.57-2.14-17-5.3l-1.23-.59-66-38c6 2 10 3.5 16 1.92 10.47-2.76 20.58-6.22 27.66-7.86a1.46 1.46 0 0 1 .29 0 2 2 0 0 1 1 .25Z" style="fill:#f50057"/><path d="M469.66 269.67a1.45 1.45 0 0 0-.72-.08c-5.19.61-23.69 6.27-31 8.75-5 1.72-10.57-2.14-17-5.3l-1.23-.59-66-38c6 2 10 3.5 16 1.92 10.47-2.76 20.58-6.22 27.66-7.86a1.46 1.46 0 0 1 .29 0 2 2 0 0 1 1 .25Z" style="fill:#fff;opacity:.15"/><path d="m388.92 286.12-5.87 14.64a13.84 13.84 0 0 1-5.13 6.63l-54.17 32.12c2.93-7.21 10.47-25.89 14.26-36.17 2.74-7.42 3.32-7.76 4.2-8.27a28.67 28.67 0 0 1 2.88-1.3c.81-.32 1.71-.69 2.73-1.15 5.5-2.42 23.32-9.18 38.74-13.82 2.92-.88 4.13 2.91 2.36 7.32Z" style="fill:#263238"/><path d="M372.19 284.92 335.43 331l-8.88 5.26c3.54-8.75 9.49-23.61 12.74-32.44 2.57-6.95 3.1-7.25 3.61-7.54a22.76 22.76 0 0 1 2.66-1.2 78.6 78.6 0 0 0 2.82-1.19c3.79-1.68 13.25-5.34 23.81-8.97Z" style="fill:#455a64"/><path d="m377.1 307.88.82-.49.14-.09a151.34 151.34 0 0 0-.25-25.74l-.89.3a151.32 151.32 0 0 1 .18 26.02ZM341.2 296c1.17 11.25-.35 24.38-2.09 34.42l1-.61c1.72-10.21 3.17-23.39 1.88-34.61a2.63 2.63 0 0 0-.79.8Z"/><path d="M402.18 288.53a46.18 46.18 0 0 0-8.85 7c-2.67 2.64-5.07 5.52-8.22 7.58 3.35-1.73 6-4.56 8.7-7.07 9.31-9.1 17.9-10.64 29.89-14l-5.52 1.07c-5.52 1.19-11.03 2.62-16 5.42Zm29.9 26.47a481.726 481.726 0 0 0 34.56-24.34A482.669 482.669 0 0 0 432.08 315Zm-49.79 15.1c.28-7.52.47-15.15-.92-22.58a164.46 164.46 0 0 1 0 22.53c-.28 5.45-.61 10.9-1.2 16.32a3978.77 3978.77 0 0 0-58.37 35.48c.85-5.35 1.23-10.78 1.56-16.18.26-7.69.44-15.5-1.05-23.08a161.06 161.06 0 0 1 .14 23c-.27 5.52-.6 11.05-1.19 16.55-8.89 5.51-17.64 11-26.13 16.35 8.5-5 17.23-10.19 26-15.48q-.31 2.79-.73 5.56a78.9 78.9 0 0 0 1.22-5.85c19.49-11.7 39.42-23.9 58.45-35.78q-.31 2.77-.73 5.53c.49-1.93.89-3.88 1.22-5.84q7.71-4.82 15.19-9.54-7.46 4.38-15.1 8.93c.91-5.24 1.35-10.59 1.64-15.92Z" style="opacity:.2"/><path style="fill:#fff" d="m377.67 248.24 11.78 6.78 36.16-10.74-11.77-6.79-36.17 10.75zM449.72 258.18l-11.59-6.69-38.31 9.51 11.6 6.68 38.3-9.5z"/><path d="M396.47 305.22c-11.6 10.77-9.74 11.14-14.72 14.3s-51.62 30.44-59.1 34.75-32.37 21.12-54.25 36.65-29 19.42-27.54 25.93c.74 3.31 2.28 8.4 3.61 12.6l9.94-6.07 2.22-8.05c1.25-4.51 4.2-8.79 7.39-10.72l22.76-13.77c3.12-1.89 5.8-1 6.73 2.1l1.64 5.59 2.42 8.27v.06l95.2-58.54 5.23-19.16c1.07-4 3.57-7.72 6.23-9.33l20.77-12.6c2.61-1.58 4.84-.74 5.58 2.1l1.47 5.67 2.05 7.9 1.41-.86s15.23-11.57 20-14.94 7-6.06 9.14-11c.49-1.15 1.22-3.08 2-5.41a105.66 105.66 0 0 0 3.48-12.52c-38.07 7.67-62.13 16.34-73.66 27.05Z" style="opacity:.1"/><path d="M283.08 331.05C270 339 237.54 367.21 226.73 378.7c-11.13 11.83-15.1 22.15-15.1 22.15v3.22l-9.27-5.07v-3.14s4-10.32 15.11-22.16c10.4-11 40.84-37.62 54.77-46.65 3.58 1.4 7.23 2.74 10.84 4ZM257.37 320.29c-14.69 10.14-42.75 34.71-52.64 45.24-11.13 11.83-15.1 22.83-15.1 22.83v3l-9.27-5.67v-3.07s4-10.32 15.1-22.16c9.9-10.51 38-35.1 52.66-45.23 2.7 1.61 5.77 3.3 9.25 5.06Z" style="fill:#fafafa"/><path d="M403.16 306.1c-9.11 4.64-11 8.42-12.29 13s.27 17.81.27 17.81 2-15.28 8.68-22.22c7.61-7.86 22.85-15.31 22.85-15.31s-12.43 3.12-19.51 6.72ZM342.41 191.64 341 187.2c-.77-3.58 13.87 4.87 14.63 8.45l-4.71 12.7a2 2 0 0 1-.79.92c-1 .64-4.85 2.79-5.18 3a2 2 0 0 1-3-1.12l-6.11-20.95c-.41-1.78 2.96-.62 6.57 1.44Z" style="fill:#f50057"/><path d="M342.41 191.64 341 187.2c-.77-3.58 13.87 4.87 14.63 8.45l-4.71 12.7a2 2 0 0 1-.79.92c-1 .64-4.85 2.79-5.18 3a2 2 0 0 1-3-1.12l-6.11-20.95c-.41-1.78 2.96-.62 6.57 1.44Z" style="opacity:.15"/><path d="m349.64 200.49-3.91 10.85a2 2 0 0 1-3.81-.2l-5.2-18.14Z" style="fill:#f50057"/><path d="m349.64 200.49-3.91 10.85a2 2 0 0 1-3.81-.2l-5.2-18.14Z" style="fill:#fff;opacity:.35000000000000003"/><path d="M332.2 121.06c5.5-3.12 13.06-2.65 21.41 2.18 16.79 9.69 30.39 33.28 30.39 52.68 0 9.68-3.4 16.49-8.9 19.67l-10.39 6c-5.5 3.16-13.09 2.7-21.48-2.14-16.8-9.7-30.41-33.28-30.41-52.68 0-9.67 3.38-16.47 8.86-19.65 2.32-1.36 8.2-4.74 10.52-6.06Z" style="fill:#f50057"/><path d="M339.67 197.12a.33.33 0 0 0 .1.06 41.12 41.12 0 0 0 3.48 2.25c8.39 4.84 16 5.3 21.48 2.13 2.3-1.31 8.1-4.65 10.39-6 5.5-3.18 8.9-10 8.9-19.67 0-1.34-.07-2.7-.2-4.07a.76.76 0 0 0 0-.15c-14.65 8.45-30.12 17.33-44.15 25.45Z" style="opacity:.15"/><ellipse cx="343.25" cy="164.31" rx="24.83" ry="43.01" transform="rotate(-30 343.252 164.314)" style="fill:#f50057"/><ellipse cx="343.25" cy="164.31" rx="24.83" ry="43.01" transform="rotate(-30 343.252 164.314)" style="fill:#fff;opacity:.35000000000000003"/><path d="M359.76 169a25 25 0 0 0-2-9.7v-.07c-1.51-3.5-3.71-6.45-6.17-7.89-4.21-2.48-7.72 2.61-8.28 8.58-.5-6.59-3.94-15.76-8.16-18.22-2.45-1.44-4.67-1.08-6.2.64-1.31 1.5-2.12 4-2.13 7.25-.05 10.11 6 19.24 11 28.85l5.45 9.29 5.27-3c5.07-3.58 11.17-5.6 11.22-15.73Z" style="fill:#fafafa"/></svg>